<?xml version="1.0" encoding="utf-8"?>
<!-- Generator: Adobe Illustrator 20.1.0, SVG Export Plug-In . SVG Version: 6.00 Build 0)  -->
<svg version="1.1" xmlns="http://www.w3.org/2000/svg" xmlns:xlink="http://www.w3.org/1999/xlink" x="0px" y="0px"
	 viewBox="0 0 506 48.1" style="enable-background:new 0 0 506 48.1;" xml:space="preserve">
<style type="text/css">
	.st0{display:none;}
	.st1{display:inline;}
	.st2{display:inline;fill:#FFFFFF;}
	.st3{fill:#558C3F;}
	.st4{fill:#83A73E;}
</style>
<g id="K" class="st0">
	<path id="MyQaDp_4_" class="st1" d="M12.5,38c11.4,0,18.7-7.4,18.7-19.1C31.2,7.8,24.1,0,14,0H0v38H12.5z M7,5.4h6.5
		c5.9,0,10.1,5.5,10.1,13.4c0,8.3-4.3,13.6-10.9,13.6H7V5.4z M60.5,32.3V19.7c0-5-0.5-6.4-2.9-8.3c-1.8-1.4-4.4-2-8.4-2
		c-4.1,0-6.7,0.6-9.1,2.2c-2.5,1.7-3.3,2.9-3.8,5.9l5.4,0.8c0.7-3.1,2.7-4.4,6.6-4.4c4,0,5.9,1.5,5.9,4.4v2.1
		c-0.7,0-1.3-0.1-1.7-0.1c-11.2,0-17.1,3.4-17.1,9.7c0,5.1,3.8,8.7,9.4,8.7c2.6,0,5.1-0.8,6.8-2.3c1.2-1,1.7-1.8,2.7-4
		c0.2,2.7,0.3,3.6,1,5.7h6C60.8,35.9,60.5,34.2,60.5,32.3z M54.3,26.3c0,4.6-2.9,7.5-7.3,7.5c-3.1,0-5-1.6-5-4.2
		c0-1.9,1.1-3.6,3.1-4.4c2.3-1,5.4-1.5,8.8-1.5h0.3V26.3z M90.8,9.9h-6.3v13.5c0,2.8-0.2,4.4-0.8,5.8c-1,2.3-3.3,3.9-5.5,3.9
		c-2.6,0-3.9-1.7-3.9-5V9.9h-6.5v19.7c0,5.6,3.1,9,8.3,9c2.3,0,4.3-0.7,5.9-2.1c1.5-1.2,2.1-2.2,3-4.6V38h5.9V9.9z M121.6,4.6
		c-3.7,0-5.8,1.6-6.8,5.4c-2.4-0.5-3.4-0.6-5.4-0.6c-7.2,0-11.6,3.3-11.6,8.5c0,2.8,1.1,4.6,3.9,6.4c-3.2,1.7-4.5,3.3-4.5,5.9
		c0,1.8,0.6,2.9,2.6,4.6c-3.1,1.7-4.1,3-4.1,5.7c0,5.1,4.6,7.6,13.6,7.6c9.1,0,14.7-3.5,14.7-9.2c0-4.6-3.7-7.7-9.2-7.7h-8.4
		c-2.3,0-3.8-1.1-3.8-2.8c0-1.3,0.5-1.9,1.9-2.7c2.5,0.6,3.6,0.7,5.3,0.7c6.7,0,11.3-3.5,11.3-8.7c0-2.3-0.9-3.9-3.3-6
		c1-1.9,1.8-2.3,4.1-2.3h1.9V4.6H121.6z M114.7,18.1c0,2.8-1.9,4.5-5.1,4.5c-3.2,0-5.2-1.8-5.2-4.6c0-2.8,2.1-4.7,5.3-4.7
		c3.1,0,4.8,1.6,5,4.5C114.7,17.9,114.7,18,114.7,18.1z M107.1,37.2h6.7c2.5,0,4.2,1.1,4.2,2.9c0,2.4-2.4,3.7-7.4,3.7
		c-5.8,0-9.3-1.8-9.3-4.8c0-0.9,0.3-1.5,1.3-2.5C104.7,37.1,105.5,37.2,107.1,37.2z M151.5,18.7c0-6.6-2.9-9.9-8.6-9.9
		c-4,0-6.6,1.8-8.3,6V0h-6.3v38h6.3V23.4c0-5.9,2.3-9.2,6.3-9.2c2.8,0,4.3,1.9,4.3,5.4V38h6.3V18.7z M170.6,33.6
		c-4.3,0-6.7-3-6.7-8.2v-0.7h19.3c0-0.3,0-0.6,0-0.8c0-9-4.9-14.6-12.7-14.6c-7.9,0-13.2,5.9-13.2,14.7c0,8.9,5.1,14.5,13,14.5
		c6.2,0,10.6-3.1,12.4-8.7L177,29C175.6,32.3,173.9,33.6,170.6,33.6z M163.9,20.6c0.6-4.5,2.8-6.8,6.4-6.8c3.7,0,6,2.6,6.3,6.8
		H163.9z M195.3,25c0-5.6,3-9.1,7.7-9.1h0.3V9.1c-0.3-0.1-0.6-0.1-0.9-0.1c-1.1,0-2.2,0.3-3.3,1c-2.3,1.4-3.5,3.2-4.4,6.6V9.9H189
		V38h6.3V25z M220.7,33.1c-3.5,0-4.6-1-4.6-4.6V14.8h5.6V9.9h-5.6V2.1L211,2.6l-0.6,7.3h-3.9v4.9h3.5v14.6c0,3.8,0.4,5.4,1.9,7
		c1.3,1.4,3.7,2.3,6,2.3c1,0,2.6-0.2,4.4-0.6v-5C221.7,33.1,221.2,33.1,220.7,33.1z M244.6,9.9l-5.9,18.5l-6.8-18.5h-6.6l9.6,26.4
		c0.4,1,0.6,1.6,0.6,1.7c0,2.9-2.1,5-5,5c-0.7,0-1.8-0.1-3.1-0.1v5.1c1.6,0.1,2.8,0.2,3.7,0.2c3.9,0,6.2-1.9,7.6-6.2l10.9-32H244.6z
		 M263.2,37.8h6.5c3.1,0,5.2-1.3,5.2-3.8v0c0-1.9-1.1-2.8-2.8-3.4c1-0.5,2-1.4,2-3.1v0c0-0.9-0.3-1.7-0.9-2.3
		c-0.8-0.8-2.1-1.2-3.7-1.2h-6.3V37.8z M265.6,29.7V26h3.5c1.6,0,2.5,0.7,2.5,1.8v0c0,1.3-1.1,1.9-2.6,1.9H265.6z M265.6,35.7v-3.8
		h3.9c1.9,0,2.9,0.7,2.9,1.9v0c0,1.3-1,1.9-2.7,1.9H265.6z M284.3,38.1c3.7,0,6-2.1,6-6.3v-7.9h-2.5v8.1c0,2.6-1.3,3.9-3.5,3.9
		c-2.2,0-3.5-1.4-3.5-4v-8h-2.5v8.1C278.3,36,280.6,38.1,284.3,38.1z M299.4,38c2.9,0,5-1.6,5-4.2v0c0-2.3-1.5-3.4-4.5-4.1
		c-2.7-0.6-3.3-1.1-3.3-2.2v0c0-0.9,0.8-1.7,2.3-1.7c1.3,0,2.5,0.5,3.8,1.4l1.3-1.9c-1.4-1.1-3-1.8-5.1-1.8c-2.8,0-4.8,1.7-4.8,4.1
		v0c0,2.6,1.7,3.5,4.7,4.2c2.6,0.6,3.2,1.1,3.2,2.1v0c0,1.1-1,1.8-2.5,1.8c-1.7,0-3.1-0.7-4.4-1.8l-1.5,1.8
		C295.3,37.3,297.3,38,299.4,38z M308.4,37.8h2.5v-14h-2.5V37.8z M315.4,37.8h2.4v-10l7.7,10h2.1v-14h-2.4v9.7l-7.5-9.7h-2.3V37.8z
		 M332.2,37.8h10.5v-2.2h-8v-3.8h7v-2.2h-7V26h7.9v-2.2h-10.4V37.8z M351.5,38c2.9,0,5-1.6,5-4.2v0c0-2.3-1.5-3.4-4.5-4.1
		c-2.7-0.6-3.3-1.1-3.3-2.2v0c0-0.9,0.8-1.7,2.3-1.7c1.3,0,2.5,0.5,3.8,1.4l1.3-1.9c-1.4-1.1-3-1.8-5.1-1.8c-2.8,0-4.8,1.7-4.8,4.1
		v0c0,2.6,1.7,3.5,4.7,4.2c2.6,0.6,3.2,1.1,3.2,2.1v0c0,1.1-1,1.8-2.5,1.8c-1.7,0-3.1-0.7-4.4-1.8l-1.5,1.8
		C347.3,37.3,349.4,38,351.5,38z M365.1,38c2.9,0,5-1.6,5-4.2v0c0-2.3-1.5-3.4-4.5-4.1c-2.7-0.6-3.3-1.1-3.3-2.2v0
		c0-0.9,0.8-1.7,2.3-1.7c1.3,0,2.5,0.5,3.8,1.4l1.3-1.9c-1.4-1.1-3-1.8-5.1-1.8c-2.8,0-4.8,1.7-4.8,4.1v0c0,2.6,1.7,3.5,4.7,4.2
		c2.6,0.6,3.2,1.1,3.2,2.1v0c0,1.1-1,1.8-2.5,1.8c-1.7,0-3.1-0.7-4.4-1.8l-1.5,1.8C361,37.3,363,38,365.1,38z M385.5,38
		c2.9,0,5-1.6,5-4.2v0c0-2.3-1.5-3.4-4.5-4.1c-2.7-0.6-3.3-1.1-3.3-2.2v0c0-0.9,0.8-1.7,2.3-1.7c1.3,0,2.5,0.5,3.8,1.4l1.3-1.9
		c-1.4-1.1-3-1.8-5.1-1.8c-2.8,0-4.8,1.7-4.8,4.1v0c0,2.6,1.7,3.5,4.7,4.2c2.6,0.6,3.2,1.1,3.2,2.1v0c0,1.1-1,1.8-2.5,1.8
		c-1.7,0-3.1-0.7-4.4-1.8l-1.5,1.8C381.4,37.3,383.4,38,385.5,38z M400.8,38.1c4.3,0,7.3-3.3,7.3-7.2v0c0-3.9-3-7.2-7.3-7.2
		c-4.3,0-7.3,3.3-7.3,7.2v0C393.5,34.8,396.5,38.1,400.8,38.1z M400.9,35.8c-2.8,0-4.8-2.3-4.8-5v0c0-2.7,1.9-4.9,4.7-4.9
		c2.8,0,4.8,2.3,4.8,5v0C405.6,33.6,403.6,35.8,400.9,35.8z M412.1,37.8h9.8v-2.2h-7.4V23.8h-2.5V37.8z M430.6,38.1
		c3.7,0,6-2.1,6-6.3v-7.9h-2.5v8.1c0,2.6-1.3,3.9-3.5,3.9c-2.2,0-3.5-1.4-3.5-4v-8h-2.5v8.1C424.6,36,427,38.1,430.6,38.1z
		 M444.2,37.8h2.5V26.1h4.4v-2.3h-11.4v2.3h4.4V37.8z M454.5,37.8h2.5v-14h-2.5V37.8z M468.1,38.1c4.3,0,7.3-3.3,7.3-7.2v0
		c0-3.9-3-7.2-7.3-7.2c-4.3,0-7.3,3.3-7.3,7.2v0C460.8,34.8,463.8,38.1,468.1,38.1z M468.2,35.8c-2.8,0-4.8-2.3-4.8-5v0
		c0-2.7,1.9-4.9,4.7-4.9c2.8,0,4.8,2.3,4.8,5v0C472.9,33.6,471,35.8,468.2,35.8z M479.4,37.8h2.4v-10l7.7,10h2.1v-14h-2.4v9.7
		l-7.5-9.7h-2.3V37.8z M501,38c2.9,0,5-1.6,5-4.2v0c0-2.3-1.5-3.4-4.5-4.1c-2.7-0.6-3.3-1.1-3.3-2.2v0c0-0.9,0.8-1.7,2.3-1.7
		c1.3,0,2.5,0.5,3.8,1.4l1.3-1.9c-1.4-1.1-3-1.8-5.1-1.8c-2.8,0-4.8,1.7-4.8,4.1v0c0,2.6,1.7,3.5,4.7,4.2c2.6,0.6,3.2,1.1,3.2,2.1v0
		c0,1.1-1,1.8-2.5,1.8c-1.7,0-3.1-0.7-4.4-1.8l-1.5,1.8C496.8,37.3,498.8,38,501,38z"/>
</g>
<g id="Reversed" class="st0">
	<path id="MyQaDp_1_" class="st2" d="M12.5,38c11.4,0,18.7-7.4,18.7-19.1C31.2,7.8,24.1,0,14,0H0v38H12.5z M7,5.4h6.5
		c5.9,0,10.1,5.5,10.1,13.4c0,8.3-4.3,13.6-10.9,13.6H7V5.4z M60.5,32.3V19.7c0-5-0.5-6.4-2.9-8.3c-1.8-1.4-4.4-2-8.4-2
		c-4.1,0-6.7,0.6-9.1,2.2c-2.5,1.7-3.3,2.9-3.8,5.9l5.4,0.8c0.7-3.1,2.7-4.4,6.6-4.4c4,0,5.9,1.5,5.9,4.4v2.1
		c-0.7,0-1.3-0.1-1.7-0.1c-11.2,0-17.1,3.4-17.1,9.7c0,5.1,3.8,8.7,9.4,8.7c2.6,0,5.1-0.8,6.8-2.3c1.2-1,1.7-1.8,2.7-4
		c0.2,2.7,0.3,3.6,1,5.7h6C60.8,35.9,60.5,34.2,60.5,32.3z M54.3,26.3c0,4.6-2.9,7.5-7.3,7.5c-3.1,0-5-1.6-5-4.2
		c0-1.9,1.1-3.6,3.1-4.4c2.3-1,5.4-1.5,8.8-1.5h0.3V26.3z M90.8,9.9h-6.3v13.5c0,2.8-0.2,4.4-0.8,5.8c-1,2.3-3.3,3.9-5.5,3.9
		c-2.6,0-3.9-1.7-3.9-5V9.9h-6.5v19.7c0,5.6,3.1,9,8.3,9c2.3,0,4.3-0.7,5.9-2.1c1.5-1.2,2.1-2.2,3-4.6V38h5.9V9.9z M121.6,4.6
		c-3.7,0-5.8,1.6-6.8,5.4c-2.4-0.5-3.4-0.6-5.4-0.6c-7.2,0-11.6,3.3-11.6,8.5c0,2.8,1.1,4.6,3.9,6.4c-3.2,1.7-4.5,3.3-4.5,5.9
		c0,1.8,0.6,2.9,2.6,4.6c-3.1,1.7-4.1,3-4.1,5.7c0,5.1,4.6,7.6,13.6,7.6c9.1,0,14.7-3.5,14.7-9.2c0-4.6-3.7-7.7-9.2-7.7h-8.4
		c-2.3,0-3.8-1.1-3.8-2.8c0-1.3,0.5-1.9,1.9-2.7c2.5,0.6,3.6,0.7,5.3,0.7c6.7,0,11.3-3.5,11.3-8.7c0-2.3-0.9-3.9-3.3-6
		c1-1.9,1.8-2.3,4.1-2.3h1.9V4.6H121.6z M114.7,18.1c0,2.8-1.9,4.5-5.1,4.5c-3.2,0-5.2-1.8-5.2-4.6c0-2.8,2.1-4.7,5.3-4.7
		c3.1,0,4.8,1.6,5,4.5C114.7,17.9,114.7,18,114.7,18.1z M107.1,37.2h6.7c2.5,0,4.2,1.1,4.2,2.9c0,2.4-2.4,3.7-7.4,3.7
		c-5.8,0-9.3-1.8-9.3-4.8c0-0.9,0.3-1.5,1.3-2.5C104.7,37.1,105.5,37.2,107.1,37.2z M151.5,18.7c0-6.6-2.9-9.9-8.6-9.9
		c-4,0-6.6,1.8-8.3,6V0h-6.3v38h6.3V23.4c0-5.9,2.3-9.2,6.3-9.2c2.8,0,4.3,1.9,4.3,5.4V38h6.3V18.7z M170.6,33.6
		c-4.3,0-6.7-3-6.7-8.2v-0.7h19.3c0-0.3,0-0.6,0-0.8c0-9-4.9-14.6-12.7-14.6c-7.9,0-13.2,5.9-13.2,14.7c0,8.9,5.1,14.5,13,14.5
		c6.2,0,10.6-3.1,12.4-8.7L177,29C175.6,32.3,173.9,33.6,170.6,33.6z M163.9,20.6c0.6-4.5,2.8-6.8,6.4-6.8c3.7,0,6,2.6,6.3,6.8
		H163.9z M195.3,25c0-5.6,3-9.1,7.7-9.1h0.3V9.1c-0.3-0.1-0.6-0.1-0.9-0.1c-1.1,0-2.2,0.3-3.3,1c-2.3,1.4-3.5,3.2-4.4,6.6V9.9H189
		V38h6.3V25z M220.7,33.1c-3.5,0-4.6-1-4.6-4.6V14.8h5.6V9.9h-5.6V2.1L211,2.6l-0.6,7.3h-3.9v4.9h3.5v14.6c0,3.8,0.4,5.4,1.9,7
		c1.3,1.4,3.7,2.3,6,2.3c1,0,2.6-0.2,4.4-0.6v-5C221.7,33.1,221.2,33.1,220.7,33.1z M244.6,9.9l-5.9,18.5l-6.8-18.5h-6.6l9.6,26.4
		c0.4,1,0.6,1.6,0.6,1.7c0,2.9-2.1,5-5,5c-0.7,0-1.8-0.1-3.1-0.1v5.1c1.6,0.1,2.8,0.2,3.7,0.2c3.9,0,6.2-1.9,7.6-6.2l10.9-32H244.6z
		 M263.2,37.8h6.5c3.1,0,5.2-1.3,5.2-3.8v0c0-1.9-1.1-2.8-2.8-3.4c1-0.5,2-1.4,2-3.1v0c0-0.9-0.3-1.7-0.9-2.3
		c-0.8-0.8-2.1-1.2-3.7-1.2h-6.3V37.8z M265.6,29.7V26h3.5c1.6,0,2.5,0.7,2.5,1.8v0c0,1.3-1.1,1.9-2.6,1.9H265.6z M265.6,35.7v-3.8
		h3.9c1.9,0,2.9,0.7,2.9,1.9v0c0,1.3-1,1.9-2.7,1.9H265.6z M284.3,38.1c3.7,0,6-2.1,6-6.3v-7.9h-2.5v8.1c0,2.6-1.3,3.9-3.5,3.9
		c-2.2,0-3.5-1.4-3.5-4v-8h-2.5v8.1C278.3,36,280.6,38.1,284.3,38.1z M299.4,38c2.9,0,5-1.6,5-4.2v0c0-2.3-1.5-3.4-4.5-4.1
		c-2.7-0.6-3.3-1.1-3.3-2.2v0c0-0.9,0.8-1.7,2.3-1.7c1.3,0,2.5,0.5,3.8,1.4l1.3-1.9c-1.4-1.1-3-1.8-5.1-1.8c-2.8,0-4.8,1.7-4.8,4.1
		v0c0,2.6,1.7,3.5,4.7,4.2c2.6,0.6,3.2,1.1,3.2,2.1v0c0,1.1-1,1.8-2.5,1.8c-1.7,0-3.1-0.7-4.4-1.8l-1.5,1.8
		C295.3,37.3,297.3,38,299.4,38z M308.4,37.8h2.5v-14h-2.5V37.8z M315.4,37.8h2.4v-10l7.7,10h2.1v-14h-2.4v9.7l-7.5-9.7h-2.3V37.8z
		 M332.2,37.8h10.5v-2.2h-8v-3.8h7v-2.2h-7V26h7.9v-2.2h-10.4V37.8z M351.5,38c2.9,0,5-1.6,5-4.2v0c0-2.3-1.5-3.4-4.5-4.1
		c-2.7-0.6-3.3-1.1-3.3-2.2v0c0-0.9,0.8-1.7,2.3-1.7c1.3,0,2.5,0.5,3.8,1.4l1.3-1.9c-1.4-1.1-3-1.8-5.1-1.8c-2.8,0-4.8,1.7-4.8,4.1
		v0c0,2.6,1.7,3.5,4.7,4.2c2.6,0.6,3.2,1.1,3.2,2.1v0c0,1.1-1,1.8-2.5,1.8c-1.7,0-3.1-0.7-4.4-1.8l-1.5,1.8
		C347.3,37.3,349.4,38,351.5,38z M365.1,38c2.9,0,5-1.6,5-4.2v0c0-2.3-1.5-3.4-4.5-4.1c-2.7-0.6-3.3-1.1-3.3-2.2v0
		c0-0.9,0.8-1.7,2.3-1.7c1.3,0,2.5,0.5,3.8,1.4l1.3-1.9c-1.4-1.1-3-1.8-5.1-1.8c-2.8,0-4.8,1.7-4.8,4.1v0c0,2.6,1.7,3.5,4.7,4.2
		c2.6,0.6,3.2,1.1,3.2,2.1v0c0,1.1-1,1.8-2.5,1.8c-1.7,0-3.1-0.7-4.4-1.8l-1.5,1.8C361,37.3,363,38,365.1,38z M385.5,38
		c2.9,0,5-1.6,5-4.2v0c0-2.3-1.5-3.4-4.5-4.1c-2.7-0.6-3.3-1.1-3.3-2.2v0c0-0.9,0.8-1.7,2.3-1.7c1.3,0,2.5,0.5,3.8,1.4l1.3-1.9
		c-1.4-1.1-3-1.8-5.1-1.8c-2.8,0-4.8,1.7-4.8,4.1v0c0,2.6,1.7,3.5,4.7,4.2c2.6,0.6,3.2,1.1,3.2,2.1v0c0,1.1-1,1.8-2.5,1.8
		c-1.7,0-3.1-0.7-4.4-1.8l-1.5,1.8C381.4,37.3,383.4,38,385.5,38z M400.8,38.1c4.3,0,7.3-3.3,7.3-7.2v0c0-3.9-3-7.2-7.3-7.2
		c-4.3,0-7.3,3.3-7.3,7.2v0C393.5,34.8,396.5,38.1,400.8,38.1z M400.9,35.8c-2.8,0-4.8-2.3-4.8-5v0c0-2.7,1.9-4.9,4.7-4.9
		c2.8,0,4.8,2.3,4.8,5v0C405.6,33.6,403.6,35.8,400.9,35.8z M412.1,37.8h9.8v-2.2h-7.4V23.8h-2.5V37.8z M430.6,38.1
		c3.7,0,6-2.1,6-6.3v-7.9h-2.5v8.1c0,2.6-1.3,3.9-3.5,3.9c-2.2,0-3.5-1.4-3.5-4v-8h-2.5v8.1C424.6,36,427,38.1,430.6,38.1z
		 M444.2,37.8h2.5V26.1h4.4v-2.3h-11.4v2.3h4.4V37.8z M454.5,37.8h2.5v-14h-2.5V37.8z M468.1,38.1c4.3,0,7.3-3.3,7.3-7.2v0
		c0-3.9-3-7.2-7.3-7.2c-4.3,0-7.3,3.3-7.3,7.2v0C460.8,34.8,463.8,38.1,468.1,38.1z M468.2,35.8c-2.8,0-4.8-2.3-4.8-5v0
		c0-2.7,1.9-4.9,4.7-4.9c2.8,0,4.8,2.3,4.8,5v0C472.9,33.6,471,35.8,468.2,35.8z M479.4,37.8h2.4v-10l7.7,10h2.1v-14h-2.4v9.7
		l-7.5-9.7h-2.3V37.8z M501,38c2.9,0,5-1.6,5-4.2v0c0-2.3-1.5-3.4-4.5-4.1c-2.7-0.6-3.3-1.1-3.3-2.2v0c0-0.9,0.8-1.7,2.3-1.7
		c1.3,0,2.5,0.5,3.8,1.4l1.3-1.9c-1.4-1.1-3-1.8-5.1-1.8c-2.8,0-4.8,1.7-4.8,4.1v0c0,2.6,1.7,3.5,4.7,4.2c2.6,0.6,3.2,1.1,3.2,2.1v0
		c0,1.1-1,1.8-2.5,1.8c-1.7,0-3.1-0.7-4.4-1.8l-1.5,1.8C496.8,37.3,498.8,38,501,38z"/>
</g>
<g id="_x34_c">
	<g id="MyQaDp_2_">
		<g id="_x38_YPVJn_2_">
			<g>
				<path class="st3" d="M12.5,38c11.4,0,18.7-7.4,18.7-19.1C31.2,7.8,24.1,0,14,0H0v38H12.5z M7,5.4h6.5c5.9,0,10.1,5.5,10.1,13.4
					c0,8.3-4.3,13.6-10.9,13.6H7V5.4z"/>
				<path class="st3" d="M60.5,32.3V19.7c0-5-0.5-6.4-2.9-8.3c-1.8-1.4-4.4-2-8.4-2c-4.1,0-6.7,0.6-9.1,2.2
					c-2.5,1.7-3.3,2.9-3.8,5.9l5.4,0.8c0.7-3.1,2.7-4.4,6.6-4.4c4,0,5.9,1.5,5.9,4.4v2.1c-0.7,0-1.3-0.1-1.7-0.1
					c-11.2,0-17.1,3.4-17.1,9.7c0,5.1,3.8,8.7,9.4,8.7c2.6,0,5.1-0.8,6.8-2.3c1.2-1,1.7-1.8,2.7-4c0.2,2.7,0.3,3.6,1,5.7h6
					C60.8,35.9,60.5,34.2,60.5,32.3z M54.3,26.3c0,4.6-2.9,7.5-7.3,7.5c-3.1,0-5-1.6-5-4.2c0-1.9,1.1-3.6,3.1-4.4
					c2.3-1,5.4-1.5,8.8-1.5h0.3V26.3z"/>
				<path class="st3" d="M90.8,9.9h-6.3v13.5c0,2.8-0.2,4.4-0.8,5.8c-1,2.3-3.3,3.9-5.5,3.9c-2.6,0-3.9-1.7-3.9-5V9.9h-6.5v19.7
					c0,5.6,3.1,9,8.3,9c2.3,0,4.3-0.7,5.9-2.1c1.5-1.2,2.1-2.2,3-4.6V38h5.9V9.9z"/>
				<path class="st3" d="M121.6,4.6c-3.7,0-5.8,1.6-6.8,5.4c-2.4-0.5-3.4-0.6-5.4-0.6c-7.2,0-11.6,3.3-11.6,8.5
					c0,2.8,1.1,4.6,3.9,6.4c-3.2,1.7-4.5,3.3-4.5,5.9c0,1.8,0.6,2.9,2.6,4.6c-3.1,1.7-4.1,3-4.1,5.7c0,5.1,4.6,7.6,13.6,7.6
					c9.1,0,14.7-3.5,14.7-9.2c0-4.6-3.7-7.7-9.2-7.7h-8.4c-2.3,0-3.8-1.1-3.8-2.8c0-1.3,0.5-1.9,1.9-2.7c2.5,0.6,3.6,0.7,5.3,0.7
					c6.7,0,11.3-3.5,11.3-8.7c0-2.3-0.9-3.9-3.3-6c1-1.9,1.8-2.3,4.1-2.3h1.9V4.6H121.6z M114.7,18.1c0,2.8-1.9,4.5-5.1,4.5
					c-3.2,0-5.2-1.8-5.2-4.6c0-2.8,2.1-4.7,5.3-4.7c3.1,0,4.8,1.6,5,4.5C114.7,17.9,114.7,18,114.7,18.1z M107.1,37.2h6.7
					c2.5,0,4.2,1.1,4.2,2.9c0,2.4-2.4,3.7-7.4,3.7c-5.8,0-9.3-1.8-9.3-4.8c0-0.9,0.3-1.5,1.3-2.5C104.7,37.1,105.5,37.2,107.1,37.2z
					"/>
				<path class="st3" d="M151.5,18.7c0-6.6-2.9-9.9-8.6-9.9c-4,0-6.6,1.8-8.3,6V0h-6.3v38h6.3V23.4c0-5.9,2.3-9.2,6.3-9.2
					c2.8,0,4.3,1.9,4.3,5.4V38h6.3V18.7z"/>
				<path class="st3" d="M170.6,33.6c-4.3,0-6.7-3-6.7-8.2v-0.7h19.3c0-0.3,0-0.6,0-0.8c0-9-4.9-14.6-12.7-14.6
					c-7.9,0-13.2,5.9-13.2,14.7c0,8.9,5.1,14.5,13,14.5c6.2,0,10.6-3.1,12.4-8.7L177,29C175.6,32.3,173.9,33.6,170.6,33.6z
					 M163.9,20.6c0.6-4.5,2.8-6.8,6.4-6.8c3.7,0,6,2.6,6.3,6.8H163.9z"/>
				<path class="st3" d="M195.3,25c0-5.6,3-9.1,7.7-9.1h0.3V9.1c-0.3-0.1-0.6-0.1-0.9-0.1c-1.1,0-2.2,0.3-3.3,1
					c-2.3,1.4-3.5,3.2-4.4,6.6V9.9H189V38h6.3V25z"/>
				<path class="st3" d="M220.7,33.1c-3.5,0-4.6-1-4.6-4.6V14.8h5.6V9.9h-5.6V2.1L211,2.6l-0.6,7.3h-3.9v4.9h3.5v14.6
					c0,3.8,0.4,5.4,1.9,7c1.3,1.4,3.7,2.3,6,2.3c1,0,2.6-0.2,4.4-0.6v-5C221.7,33.1,221.2,33.1,220.7,33.1z"/>
				<path class="st3" d="M244.6,9.9l-5.9,18.5l-6.8-18.5h-6.6l9.6,26.4c0.4,1,0.6,1.6,0.6,1.7c0,2.9-2.1,5-5,5
					c-0.7,0-1.8-0.1-3.1-0.1v5.1c1.6,0.1,2.8,0.2,3.7,0.2c3.9,0,6.2-1.9,7.6-6.2l10.9-32H244.6z"/>
				<g>
					<path class="st4" d="M263.2,37.8h6.5c3.1,0,5.2-1.3,5.2-3.8v0c0-1.9-1.1-2.8-2.8-3.4c1-0.5,2-1.4,2-3.1v0
						c0-0.9-0.3-1.7-0.9-2.3c-0.8-0.8-2.1-1.2-3.7-1.2h-6.3V37.8z M265.6,29.7V26h3.5c1.6,0,2.5,0.7,2.5,1.8v0
						c0,1.3-1.1,1.9-2.6,1.9H265.6z M265.6,35.7v-3.8h3.9c1.9,0,2.9,0.7,2.9,1.9v0c0,1.3-1,1.9-2.7,1.9H265.6z"/>
					<path class="st4" d="M284.3,38.1c3.7,0,6-2.1,6-6.3v-7.9h-2.5v8.1c0,2.6-1.3,3.9-3.5,3.9c-2.2,0-3.5-1.4-3.5-4v-8h-2.5v8.1
						C278.3,36,280.6,38.1,284.3,38.1z"/>
					<path class="st4" d="M299.4,38c2.9,0,5-1.6,5-4.2v0c0-2.3-1.5-3.4-4.5-4.1c-2.7-0.6-3.3-1.1-3.3-2.2v0c0-0.9,0.8-1.7,2.3-1.7
						c1.3,0,2.5,0.5,3.8,1.4l1.3-1.9c-1.4-1.1-3-1.8-5.1-1.8c-2.8,0-4.8,1.7-4.8,4.1v0c0,2.6,1.7,3.5,4.7,4.2
						c2.6,0.6,3.2,1.1,3.2,2.1v0c0,1.1-1,1.8-2.5,1.8c-1.7,0-3.1-0.7-4.4-1.8l-1.5,1.8C295.3,37.3,297.3,38,299.4,38z"/>
					<path class="st4" d="M308.4,37.8h2.5v-14h-2.5V37.8z"/>
					<path class="st4" d="M315.4,37.8h2.4v-10l7.7,10h2.1v-14h-2.4v9.7l-7.5-9.7h-2.3V37.8z"/>
					<path class="st4" d="M332.2,37.8h10.5v-2.2h-8v-3.8h7v-2.2h-7V26h7.9v-2.2h-10.4V37.8z"/>
					<path class="st4" d="M351.5,38c2.9,0,5-1.6,5-4.2v0c0-2.3-1.5-3.4-4.5-4.1c-2.7-0.6-3.3-1.1-3.3-2.2v0c0-0.9,0.8-1.7,2.3-1.7
						c1.3,0,2.5,0.5,3.8,1.4l1.3-1.9c-1.4-1.1-3-1.8-5.1-1.8c-2.8,0-4.8,1.7-4.8,4.1v0c0,2.6,1.7,3.5,4.7,4.2
						c2.6,0.6,3.2,1.1,3.2,2.1v0c0,1.1-1,1.8-2.5,1.8c-1.7,0-3.1-0.7-4.4-1.8l-1.5,1.8C347.3,37.3,349.4,38,351.5,38z"/>
					<path class="st4" d="M365.1,38c2.9,0,5-1.6,5-4.2v0c0-2.3-1.5-3.4-4.5-4.1c-2.7-0.6-3.3-1.1-3.3-2.2v0c0-0.9,0.8-1.7,2.3-1.7
						c1.3,0,2.5,0.5,3.8,1.4l1.3-1.9c-1.4-1.1-3-1.8-5.1-1.8c-2.8,0-4.8,1.7-4.8,4.1v0c0,2.6,1.7,3.5,4.7,4.2
						c2.6,0.6,3.2,1.1,3.2,2.1v0c0,1.1-1,1.8-2.5,1.8c-1.7,0-3.1-0.7-4.4-1.8l-1.5,1.8C361,37.3,363,38,365.1,38z"/>
					<path class="st4" d="M385.5,38c2.9,0,5-1.6,5-4.2v0c0-2.3-1.5-3.4-4.5-4.1c-2.7-0.6-3.3-1.1-3.3-2.2v0c0-0.9,0.8-1.7,2.3-1.7
						c1.3,0,2.5,0.5,3.8,1.4l1.3-1.9c-1.4-1.1-3-1.8-5.1-1.8c-2.8,0-4.8,1.7-4.8,4.1v0c0,2.6,1.7,3.5,4.7,4.2
						c2.6,0.6,3.2,1.1,3.2,2.1v0c0,1.1-1,1.8-2.5,1.8c-1.7,0-3.1-0.7-4.4-1.8l-1.5,1.8C381.4,37.3,383.4,38,385.5,38z"/>
					<path class="st4" d="M400.8,38.1c4.3,0,7.3-3.3,7.3-7.2v0c0-3.9-3-7.2-7.3-7.2c-4.3,0-7.3,3.3-7.3,7.2v0
						C393.5,34.8,396.5,38.1,400.8,38.1z M400.9,35.8c-2.8,0-4.8-2.3-4.8-5v0c0-2.7,1.9-4.9,4.7-4.9c2.8,0,4.8,2.3,4.8,5v0
						C405.6,33.6,403.6,35.8,400.9,35.8z"/>
					<path class="st4" d="M412.1,37.8h9.8v-2.2h-7.4V23.8h-2.5V37.8z"/>
					<path class="st4" d="M430.6,38.1c3.7,0,6-2.1,6-6.3v-7.9h-2.5v8.1c0,2.6-1.3,3.9-3.5,3.9c-2.2,0-3.5-1.4-3.5-4v-8h-2.5v8.1
						C424.6,36,427,38.1,430.6,38.1z"/>
					<path class="st4" d="M444.2,37.8h2.5V26.1h4.4v-2.3h-11.4v2.3h4.4V37.8z"/>
					<path class="st4" d="M454.5,37.8h2.5v-14h-2.5V37.8z"/>
					<path class="st4" d="M468.1,38.1c4.3,0,7.3-3.3,7.3-7.2v0c0-3.9-3-7.2-7.3-7.2c-4.3,0-7.3,3.3-7.3,7.2v0
						C460.8,34.8,463.8,38.1,468.1,38.1z M468.2,35.8c-2.8,0-4.8-2.3-4.8-5v0c0-2.7,1.9-4.9,4.7-4.9c2.8,0,4.8,2.3,4.8,5v0
						C472.9,33.6,471,35.8,468.2,35.8z"/>
					<path class="st4" d="M479.4,37.8h2.4v-10l7.7,10h2.1v-14h-2.4v9.7l-7.5-9.7h-2.3V37.8z"/>
					<path class="st4" d="M501,38c2.9,0,5-1.6,5-4.2v0c0-2.3-1.5-3.4-4.5-4.1c-2.7-0.6-3.3-1.1-3.3-2.2v0c0-0.9,0.8-1.7,2.3-1.7
						c1.3,0,2.5,0.5,3.8,1.4l1.3-1.9c-1.4-1.1-3-1.8-5.1-1.8c-2.8,0-4.8,1.7-4.8,4.1v0c0,2.6,1.7,3.5,4.7,4.2
						c2.6,0.6,3.2,1.1,3.2,2.1v0c0,1.1-1,1.8-2.5,1.8c-1.7,0-3.1-0.7-4.4-1.8l-1.5,1.8C496.8,37.3,498.8,38,501,38z"/>
				</g>
			</g>
		</g>
	</g>
</g>
</svg>
