<?xml version="1.0" encoding="utf-8"?>
<!-- Generator: Adobe Illustrator 20.1.0, SVG Export Plug-In . SVG Version: 6.00 Build 0)  -->
<svg version="1.1" id="Layer_1" xmlns="http://www.w3.org/2000/svg" xmlns:xlink="http://www.w3.org/1999/xlink" x="0px" y="0px"
	 viewBox="0 0 325.2 100.9" style="enable-background:new 0 0 325.2 100.9;" xml:space="preserve">
<style type="text/css">
	.st0{clip-path:url(#SVGID_2_);}
	.st1{clip-path:url(#SVGID_4_);fill:#FFFFFF;}
</style>
<g>
	<defs>
		<path id="SVGID_1_" d="M16.3,49.5c14.8,0,24.4-9.7,24.4-24.9C40.6,10.2,31.3,0,18.3,0H0v49.5H16.3z M9.1,7.1h8.5
			c7.7,0,13.1,7.2,13.1,17.5c0,10.8-5.6,17.7-14.2,17.7H9.1V7.1z M78.8,42.1V25.6c0-6.5-0.7-8.4-3.8-10.8c-2.3-1.8-5.7-2.6-10.9-2.6
			c-5.4,0-8.7,0.8-11.8,2.8c-3.3,2.2-4.2,3.7-4.9,7.7l7.1,1c0.9-4,3.5-5.7,8.5-5.7c5.2,0,7.7,1.9,7.7,5.7v2.7c-1,0-1.7-0.1-2.2-0.1
			c-14.6,0-22.3,4.4-22.3,12.6c0,6.7,5,11.3,12.2,11.3c3.4,0,6.6-1,8.8-3c1.6-1.3,2.2-2.4,3.5-5.2c0.3,3.5,0.4,4.7,1.3,7.4h7.9
			C79.1,46.8,78.8,44.5,78.8,42.1z M70.7,34.2c0,5.9-3.8,9.8-9.5,9.8c-4,0-6.5-2.1-6.5-5.5c0-2.5,1.5-4.7,4-5.7
			c3-1.3,7.1-1.9,11.5-1.9h0.4V34.2z M118.3,12.9H110v17.6c0,3.6-0.3,5.7-1,7.6c-1.3,3-4.3,5.1-7.2,5.1c-3.3,0-5.1-2.2-5.1-6.5V12.9
			h-8.5v25.6c0,7.4,4,11.7,10.8,11.7c3,0,5.6-0.9,7.7-2.7c1.9-1.6,2.8-2.8,3.9-6v7.9h7.6V12.9z M158.4,5.9c-4.8,0-7.5,2.1-8.8,7
			c-3.1-0.6-4.5-0.7-7.1-0.7c-9.4,0-15.2,4.2-15.2,11.1c0,3.6,1.4,5.9,5.1,8.4c-4.2,2.2-5.9,4.3-5.9,7.6c0,2.3,0.8,3.7,3.4,6
			c-4,2.2-5.3,3.9-5.3,7.4c0,6.6,5.9,10,17.7,10c11.8,0,19.1-4.6,19.1-12c0-5.9-4.8-10-12-10h-10.9c-3,0-5-1.4-5-3.7
			c0-1.6,0.7-2.5,2.5-3.5c3.3,0.8,4.7,1,6.9,1c8.7,0,14.8-4.6,14.8-11.3c0-3-1.2-5.1-4.3-7.9c1.3-2.4,2.3-3,5.3-3h2.5V5.9H158.4z
			 M149.4,23.6c0,3.6-2.5,5.9-6.7,5.9c-4.2,0-6.8-2.4-6.8-6c0-3.7,2.8-6.2,6.9-6.2c4,0,6.3,2.1,6.5,5.9V23.6z M139.5,48.4h8.8
			c3.3,0,5.4,1.5,5.4,3.7c0,3.2-3.2,4.8-9.7,4.8c-7.5,0-12.2-2.4-12.2-6.2c0-1.2,0.4-1.9,1.7-3.2C136.3,48.3,137.4,48.4,139.5,48.4z
			 M197.3,24.4c0-8.6-3.7-12.9-11.2-12.9c-5.3,0-8.6,2.4-10.8,7.9V0H167v49.5h8.2v-19c0-7.6,3-12,8.2-12c3.6,0,5.6,2.4,5.6,7v24h8.2
			V24.4z M222.2,43.7c-5.6,0-8.8-3.9-8.8-10.6v-0.9h25.2v-1c0-11.7-6.4-19-16.6-19c-10.3,0-17.2,7.7-17.2,19.2
			c0,11.6,6.6,18.9,16.9,18.9c8.1,0,13.8-4,16.2-11.4l-7.4-1.1C228.8,42.1,226.5,43.7,222.2,43.7z M213.5,26.9
			c0.7-5.8,3.6-8.9,8.4-8.9c4.8,0,7.9,3.4,8.2,8.9H213.5z M254.4,32.5c0-7.3,3.9-11.8,10-11.8h0.4v-8.8c-0.4-0.1-0.8-0.1-1.1-0.1
			c-1.4,0-2.9,0.4-4.2,1.3c-3,1.9-4.5,4.2-5.8,8.6v-8.8h-7.5v36.6h8.2V32.5z M287.5,43.1c-4.6,0-5.9-1.3-5.9-5.9V19.3h7.4v-6.4h-7.4
			V2.7l-6.8,0.7l-0.8,9.5h-5v6.4h4.6v19c0,5,0.5,7.1,2.4,9.1c1.7,1.8,4.8,3,7.8,3c1.3,0,3.3-0.3,5.8-0.8v-6.5
			C288.8,43.1,288.2,43.1,287.5,43.1z M318.6,12.9L311,37.1l-8.9-24.1h-8.6L306,47.3c0.5,1.3,0.7,2.1,0.7,2.2c0,3.7-2.8,6.5-6.5,6.5
			c-1,0-2.3-0.1-4-0.1v6.6c2.1,0.2,3.6,0.2,4.8,0.2c5.1,0,8-2.4,10-8.1l14.3-41.7H318.6z M0,100.6h8.4c4.1,0,6.8-1.7,6.8-5v-0.1
			c0-2.5-1.5-3.7-3.6-4.4c1.4-0.7,2.6-1.9,2.6-4.1v0c0-1.2-0.4-2.2-1.2-3c-1-1-2.7-1.6-4.8-1.6H0V100.6z M3.2,90.1v-4.9h4.6
			c2.1,0,3.2,0.9,3.2,2.3v0.1c0,1.7-1.4,2.5-3.4,2.5H3.2z M3.2,97.8v-5h5.1c2.5,0,3.7,0.9,3.7,2.5v0c0,1.6-1.3,2.5-3.5,2.5H3.2z
			 M27.5,100.9c4.8,0,7.8-2.7,7.8-8.2V82.4h-3.2v10.5c0,3.4-1.8,5.1-4.6,5.1c-2.9,0-4.6-1.8-4.6-5.2V82.4h-3.2v10.5
			C19.8,98.2,22.8,100.9,27.5,100.9z M47.3,100.9c3.8,0,6.5-2,6.5-5.4v-0.1c0-3-2-4.4-5.9-5.3c-3.5-0.8-4.3-1.5-4.3-2.9v-0.1
			c0-1.2,1.1-2.2,3-2.2c1.7,0,3.3,0.7,5,1.9l1.7-2.4c-1.8-1.5-4-2.3-6.6-2.3c-3.6,0-6.2,2.2-6.2,5.3v0c0,3.4,2.2,4.5,6.1,5.4
			c3.4,0.8,4.1,1.5,4.1,2.8v0c0,1.4-1.2,2.3-3.2,2.3c-2.3,0-4-0.9-5.8-2.4L39.6,98C41.8,99.9,44.5,100.9,47.3,100.9z M58.9,100.6
			h3.2V82.4h-3.2V100.6z M68.1,100.6h3.1v-13l10.1,13H84V82.4h-3.2V95l-9.8-12.6h-3V100.6z M90,100.6h13.7v-2.9H93.2v-4.9h9.1V90
			h-9.1v-4.8h10.3v-2.9H90V100.6z M115.1,100.9c3.8,0,6.5-2,6.5-5.4v-0.1c0-3-2-4.4-5.9-5.3c-3.5-0.8-4.3-1.5-4.3-2.9v-0.1
			c0-1.2,1.1-2.2,3-2.2c1.7,0,3.3,0.7,4.9,1.9l1.7-2.4c-1.9-1.5-4-2.3-6.6-2.3c-3.6,0-6.2,2.2-6.2,5.3v0c0,3.4,2.2,4.5,6.1,5.4
			c3.4,0.8,4.1,1.5,4.1,2.8v0c0,1.4-1.2,2.3-3.2,2.3c-2.3,0-4-0.9-5.8-2.4l-1.9,2.3C109.6,99.9,112.3,100.9,115.1,100.9z
			 M132.8,100.9c3.8,0,6.5-2,6.5-5.4v-0.1c0-3-2-4.4-5.9-5.3c-3.5-0.8-4.3-1.5-4.3-2.9v-0.1c0-1.2,1.1-2.2,3-2.2
			c1.7,0,3.3,0.7,5,1.9l1.7-2.4c-1.8-1.5-4-2.3-6.6-2.3c-3.6,0-6.2,2.2-6.2,5.3v0c0,3.4,2.2,4.5,6.1,5.4c3.4,0.8,4.1,1.5,4.1,2.8v0
			c0,1.4-1.3,2.3-3.2,2.3c-2.3,0-4-0.9-5.8-2.4l-1.9,2.3C127.4,99.9,130,100.9,132.8,100.9z M159.4,100.9c3.8,0,6.5-2,6.5-5.4v-0.1
			c0-3-2-4.4-5.9-5.3c-3.5-0.8-4.3-1.5-4.3-2.9v-0.1c0-1.2,1.1-2.2,3-2.2c1.7,0,3.3,0.7,5,1.9l1.7-2.4c-1.9-1.5-4-2.3-6.6-2.3
			c-3.6,0-6.2,2.2-6.2,5.3v0c0,3.4,2.2,4.5,6.1,5.4c3.4,0.8,4.1,1.5,4.1,2.8v0c0,1.4-1.2,2.3-3.2,2.3c-2.3,0-4-0.9-5.8-2.4l-1.9,2.3
			C154,99.9,156.6,100.9,159.4,100.9z M179.3,100.9c5.6,0,9.6-4.3,9.6-9.4v-0.1c0-5.1-3.9-9.4-9.5-9.4c-5.6,0-9.6,4.3-9.6,9.4v0.1
			C169.8,96.7,173.7,100.9,179.3,100.9z M179.4,98c-3.6,0-6.2-2.9-6.2-6.5v-0.1c0-3.5,2.5-6.4,6.2-6.4c3.6,0,6.2,3,6.2,6.5v0.1
			C185.5,95.1,183,98,179.4,98z M193.9,100.6h12.8v-2.9h-9.6V82.4h-3.2V100.6z M218.1,100.9c4.8,0,7.8-2.7,7.8-8.2V82.4h-3.2v10.5
			c0,3.4-1.8,5.1-4.6,5.1c-2.9,0-4.6-1.8-4.6-5.2V82.4h-3.2v10.5C210.3,98.2,213.4,100.9,218.1,100.9z M235.8,100.6h3.2V85.3h5.8v-3
			H230v3h5.8V100.6z M249.2,100.6h3.2V82.4h-3.2V100.6z M267,100.9c5.6,0,9.6-4.3,9.6-9.4v-0.1c0-5.1-3.9-9.4-9.5-9.4
			c-5.6,0-9.6,4.3-9.6,9.4v0.1C257.5,96.7,261.4,100.9,267,100.9z M267,98c-3.6,0-6.2-2.9-6.2-6.5v-0.1c0-3.5,2.5-6.4,6.1-6.4
			c3.6,0,6.2,3,6.2,6.5v0.1C273.2,95.1,270.7,98,267,98z M281.6,100.6h3.2v-13l10.1,13h2.7V82.4h-3.2V95l-9.8-12.6h-3V100.6z
			 M309.8,100.9c3.8,0,6.5-2,6.5-5.4v-0.1c0-3-2-4.4-5.9-5.3c-3.5-0.8-4.3-1.5-4.3-2.9v-0.1c0-1.2,1.1-2.2,3-2.2
			c1.7,0,3.3,0.7,5,1.9l1.7-2.4c-1.8-1.5-4-2.3-6.6-2.3c-3.6,0-6.2,2.2-6.2,5.3v0c0,3.4,2.2,4.5,6.1,5.4c3.4,0.8,4.1,1.5,4.1,2.8v0
			c0,1.4-1.2,2.3-3.2,2.3c-2.3,0-4-0.9-5.8-2.4l-1.9,2.3C304.3,99.9,307,100.9,309.8,100.9z"/>
	</defs>
	<clipPath id="SVGID_2_">
		<use xlink:href="#SVGID_1_"  style="overflow:visible;"/>
	</clipPath>
	<g class="st0">
		<defs>
			<rect id="SVGID_3_" x="-189" y="-416" width="768" height="1024"/>
		</defs>
		<clipPath id="SVGID_4_">
			<use xlink:href="#SVGID_3_"  style="overflow:visible;"/>
		</clipPath>
		<rect x="-5" y="-5" class="st1" width="335.2" height="110.9"/>
	</g>
</g>
</svg>
