<?xml version="1.0" encoding="utf-8"?>
<!-- Generator: Adobe Illustrator 20.1.0, SVG Export Plug-In . SVG Version: 6.00 Build 0)  -->
<svg version="1.1" id="Layer_1" xmlns="http://www.w3.org/2000/svg" xmlns:xlink="http://www.w3.org/1999/xlink" x="0px" y="0px"
	 viewBox="0 0 140 140" style="enable-background:new 0 0 140 140;" xml:space="preserve">
<style type="text/css">
	.st0{fill:url(#SVGID_1_);}
</style>
<linearGradient id="SVGID_1_" gradientUnits="userSpaceOnUse" x1="34.9" y1="72" x2="105.1" y2="72" gradientTransform="matrix(1 0 0 -1 0 142)">
	<stop  offset="0" style="stop-color:#548B3F"/>
	<stop  offset="1" style="stop-color:#B3CE82"/>
</linearGradient>
<path class="st0" d="M70,80.2c-19.4,0-35.1-15.7-35.1-35.1S50.6,10,70,10s35.1,15.7,35.1,35.1S89.4,80.2,70,80.2z M70,27.2
	c-9.9,0-17.9,8-17.9,17.9S60.1,63,70,63s17.9-8,17.9-17.9S79.9,27.2,70,27.2z M86,96.8h-7.4v-7.4c0-4.7-3.8-8.6-8.6-8.6
	c-4.7,0-8.6,3.8-8.6,8.6v7.4H54c-4.7,0-8.6,3.8-8.6,8.6s3.8,8.6,8.6,8.6h7.4v7.4c0,4.7,3.8,8.6,8.6,8.6c4.7,0,8.6-3.8,8.6-8.6V114
	H86c4.7,0,8.6-3.8,8.6-8.6S90.7,96.8,86,96.8z"/>
</svg>
