<?xml version="1.0" encoding="utf-8"?>
<!-- Generator: Adobe Illustrator 20.1.0, SVG Export Plug-In . SVG Version: 6.00 Build 0)  -->
<svg version="1.1" id="Layer_1" xmlns="http://www.w3.org/2000/svg" xmlns:xlink="http://www.w3.org/1999/xlink" x="0px" y="0px"
	 viewBox="0 0 140 140" style="enable-background:new 0 0 140 140;" xml:space="preserve">
<style type="text/css">
	.st0{fill:url(#SVGID_1_);}
</style>
<linearGradient id="SVGID_1_" gradientUnits="userSpaceOnUse" x1="26.3758" y1="70" x2="113.6242" y2="70">
	<stop  offset="0" style="stop-color:#548B3F"/>
	<stop  offset="1" style="stop-color:#B3CE82"/>
</linearGradient>
<path class="st0" d="M61.6,113.6c-9.4,0-18.2-3.7-24.9-10.3C30,96.7,26.4,87.8,26.4,78.4c0-9.4,3.7-18.2,10.3-24.9
	c6.6-6.6,15.5-10.3,24.9-10.3c9.4,0,18.2,3.7,24.9,10.3c6.6,6.6,10.3,15.5,10.3,24.9c0,9.4-3.7,18.2-10.3,24.9
	C79.8,110,71,113.6,61.6,113.6z M61.6,60.4c-4.6,0-9.2,1.8-12.7,5.3c-3.4,3.4-5.3,7.9-5.3,12.7c0,4.8,1.9,9.3,5.3,12.7
	c7,7,18.4,7,25.4,0c3.4-3.4,5.3-7.9,5.3-12.7c0-4.8-1.9-9.3-5.3-12.7C70.8,62.2,66.2,60.4,61.6,60.4z M113.6,68.2V35
	c0-4.8-3.9-8.6-8.6-8.6H71.8c-4.8,0-8.6,3.9-8.6,8.6c0,4.8,3.9,8.6,8.6,8.6h24.6v24.6c0,4.8,3.9,8.6,8.6,8.6
	C109.8,76.8,113.6,73,113.6,68.2z"/>
</svg>
