<?xml version="1.0" encoding="utf-8"?>
<!-- Generator: Adobe Illustrator 20.1.0, SVG Export Plug-In . SVG Version: 6.00 Build 0)  -->
<svg version="1.1" id="Layer_1" xmlns="http://www.w3.org/2000/svg" xmlns:xlink="http://www.w3.org/1999/xlink" x="0px" y="0px"
	 viewBox="0 0 99.6 99.6" style="enable-background:new 0 0 99.6 99.6;" xml:space="preserve">
<style type="text/css">
	.st0{clip-path:url(#SVGID_2_);}
	.st1{clip-path:url(#SVGID_4_);fill:#FFFFFF;}
</style>
<g>
	<defs>
		<path id="SVGID_1_" d="M49.8,99.6C22.3,99.6,0,77.2,0,49.8S22.3,0,49.8,0c27.5,0,49.8,22.3,49.8,49.8S77.2,99.6,49.8,99.6
			 M49.8,1.5C23.2,1.5,1.5,23.2,1.5,49.8c0,26.6,21.7,48.3,48.3,48.3s48.3-21.7,48.3-48.3C98.1,23.2,76.4,1.5,49.8,1.5 M80.7,47.2
			L60.8,27.3c-1.4-1.5-3.8-1.5-5.3,0c-1.5,1.5-1.5,3.8,0,5.3l13.5,13.5H21.5c-2.1,0-3.7,1.7-3.7,3.7s1.7,3.7,3.7,3.7h47.5L55.6,67
			c-1.5,1.4-1.5,3.8,0,5.3c0.7,0.7,1.7,1.1,2.6,1.1c1,0,1.9-0.4,2.6-1.1l19.9-19.9C82.1,51,82.1,48.6,80.7,47.2"/>
	</defs>
	<clipPath id="SVGID_2_">
		<use xlink:href="#SVGID_1_"  style="overflow:visible;"/>
	</clipPath>
	<g class="st0">
		<defs>
			<rect id="SVGID_3_" x="-302" y="-649" width="768" height="1024"/>
		</defs>
		<clipPath id="SVGID_4_">
			<use xlink:href="#SVGID_3_"  style="overflow:visible;"/>
		</clipPath>
		<rect x="-5" y="-5" class="st1" width="109.6" height="109.6"/>
	</g>
</g>
</svg>
