<?xml version="1.0" encoding="utf-8"?>
<!-- Generator: Adobe Illustrator 20.1.0, SVG Export Plug-In . SVG Version: 6.00 Build 0)  -->
<svg version="1.1" id="Layer_1" xmlns="http://www.w3.org/2000/svg" xmlns:xlink="http://www.w3.org/1999/xlink" x="0px" y="0px"
	 viewBox="0 0 140 140" style="enable-background:new 0 0 140 140;" xml:space="preserve">
<style type="text/css">
	.st0{fill:url(#SVGID_1_);}
</style>
<linearGradient id="SVGID_1_" gradientUnits="userSpaceOnUse" x1="35.1895" y1="68.2295" x2="104.8076" y2="68.2295">
	<stop  offset="0" style="stop-color:#548B3F"/>
	<stop  offset="1" style="stop-color:#B3CE82"/>
</linearGradient>
<path class="st0" d="M70,101.2c-4.7,0-8.5-3.8-8.5-8.5V74.4c0-4.7,3.8-8.5,8.5-8.5c9.8,0,17.8-8,17.8-17.8c0-9.8-8-17.8-17.8-17.8
	s-17.8,8-17.8,17.8c0,4.7-3.8,8.5-8.5,8.5s-8.5-3.8-8.5-8.5c0-19.2,15.6-34.8,34.8-34.8s34.8,15.6,34.8,34.8
	c0,16.3-11.2,30-26.3,33.8v10.8C78.5,97.4,74.7,101.2,70,101.2z M78.5,114.7v-0.3c0-4.7-3.8-8.5-8.5-8.5c-4.7,0-8.5,3.8-8.5,8.5v0.3
	c0,4.7,3.8,8.5,8.5,8.5C74.7,123.2,78.5,119.4,78.5,114.7z"/>
</svg>
